# xmcd CD database file
#
# Track frame offsets:
#	150
#	14820
#	36520
#	53117
#	73775
#	120180
#	139872
#	161130
#	187807
#	207760
#	220500
#
# Disc length: 3110 seconds
#
# Revision: 1
# Processed by: cddbd v1.5.2PL0 Copyright (c) Steve Scherf et al.
# Submitted via: CDex 1.70beta2
#
DISCID=9d0c240b
DTITLE=Susan Weinert Band - Point Of View
DYEAR=1900
DGENRE=Jazz
TTITLE0=Liebman
TTITLE1=The Kobayashi Syndrom
TTITLE2=Knock on Wood
TTITLE3=Trust Me
TTITLE4=Day
TTITLE5=Did I get you right
TTITLE6=The Proof
TTITLE7=Les Trois Arbres
TTITLE8=Fort Carré
TTITLE9=La Fureza del Viento
TTITLE10=No Warm-Ups
EXTD=
EXTT0=
EXTT1=
EXTT2=
EXTT3=
EXTT4=
EXTT5=
EXTT6=
EXTT7=
EXTT8=
EXTT9=
EXTT10=
PLAYORDER=
